<?xml version="1.0" standalone="no"?><!DOCTYPE svg PUBLIC "-//W3C//DTD SVG 1.1//EN" "http://www.w3.org/Graphics/SVG/1.1/DTD/svg11.dtd"><svg t="1567051443077" class="icon" viewBox="0 0 1024 1024" version="1.1" xmlns="http://www.w3.org/2000/svg" p-id="1453" xmlns:xlink="http://www.w3.org/1999/xlink" width="200" height="200"><defs><style type="text/css"></style></defs><path d="M979.139 434.514h-44.903V285.68a28.774 28.774 0 0 0-28.77-28.765H725.172v-21.125a28.764 28.764 0 0 0-28.759-28.769H333.798a28.77 28.77 0 0 0-28.764 28.77v21.124H124.74a28.77 28.77 0 0 0-28.765 28.765v73.564s-76.436-2.028-76.436 74.419v154.588c0 76.462 76.436 74.43 76.436 74.43v72.883a28.759 28.759 0 0 0 28.765 28.764h159.334a28.77 28.77 0 0 0-28.764 28.764v56.305a28.759 28.759 0 0 0 28.764 28.759h462.07a28.764 28.764 0 0 0 28.769-28.76v-56.304a28.774 28.774 0 0 0-28.77-28.764h159.33a28.77 28.77 0 0 0 28.77-28.764V586.737h44.902a28.774 28.774 0 0 0 28.769-28.765v-94.689a28.774 28.774 0 0 0-28.774-28.77zM351.063 694.298v-417.24c0-13.26 10.056-24.007 22.461-24.007h283.167c12.411 0 22.462 10.747 22.462 24.008v487.28h-328.09v-70.041zM167.608 718.31c-14.141 0-25.605-10.552-25.605-23.546V326.492c0-13.01 11.459-23.547 25.605-23.547h137.426V718.31H167.608z m561.27 113.833H301.332V809.13h427.546v23.014z m159.33-372.536a29.885 29.885 0 0 0-0.241 3.676v94.7c0 1.244 0.092 2.468 0.24 3.676v133.11c0 12.994-11.458 23.552-25.6 23.552h-137.43V302.945h137.43c14.142 0 25.6 10.542 25.6 23.547v133.115z m69.877 76.14h-23.844v-50.238h23.844v50.238z m0 0" p-id="1454" fill="#2f7bff"></path><path d="M602.527 384.62H498.002L378.24 523.658l130.913 2.028-58.86 106.557L649.202 471.9H520.315l82.212-87.28z m0 0" p-id="1455" fill="#2f7bff"></path></svg>